<?xml version="1.0" encoding="UTF-8" standalone="no"?>
<!-- Created with Inkscape (http://www.inkscape.org/) -->

<svg
   width="19.568617"
   height="19.499413"
   viewBox="0 0 5.1775298 5.1592196"
   version="1.1"
   id="svg1"
   xml:space="preserve"
   xmlns:xlink="http://www.w3.org/1999/xlink"
   xmlns="http://www.w3.org/2000/svg"
   xmlns:svg="http://www.w3.org/2000/svg"><defs
     id="defs1"><pattern
       xlink:href="#Strips2_1"
       preserveAspectRatio="xMidYMid"
       id="pattern43"
       patternTransform="matrix(0.21213203,0.21213203,-0.21213203,0.21213203,0.26476731,0.26370855)"
       x="-1"
       y="0"
       width="2.1" /><pattern
       patternUnits="userSpaceOnUse"
       width="1.5"
       height="1"
       patternTransform="translate(0,0) scale(2,2)"
       preserveAspectRatio="xMidYMid"
       id="Strips2_1"
       style="fill:#013b7f">
      <rect
   style="stroke:none"
   x="0"
   y="-0.5"
   width="1"
   height="2"
   id="rect197" />
    </pattern></defs><g
     id="layer1"
     style="display:none"
     transform="translate(-102.88633,-147.69101)"><path
       style="display:inline;fill:#013b7f;fill-opacity:1;stroke:#013b7f;stroke-width:0.465;stroke-linecap:round;stroke-dasharray:none;stroke-opacity:1"
       d="m 104.79015,150.22496 1.41558,1.41559"
       id="path43"
       transform="translate(1.1041667e-6)" /><path
       style="display:inline;fill:#013b7f;fill-opacity:1;stroke:#013b7f;stroke-width:0.465;stroke-linecap:round;stroke-dasharray:none;stroke-opacity:1"
       d="m 106.20573,150.22496 -1.41558,1.41559"
       id="path44"
       transform="translate(1.1041667e-6)" /></g><g
     id="g6"
     style="display:inline"
     transform="translate(-102.88633,-147.69101)"><g
       id="g37"
       style="display:inline"
       transform="translate(0.20767103,0.28337037)"><rect
         style="fill:#013b7f;fill-opacity:1;stroke:none;stroke-width:0.132368;stroke-dasharray:none;stroke-opacity:1"
         id="rect34"
         width="3.4704776"
         height="2.854003"
         x="103.47509"
         y="149.43611" /><rect
         style="fill:#013b7f;fill-opacity:1;stroke:none;stroke-width:0.20893;stroke-dasharray:none;stroke-opacity:1"
         id="rect35"
         width="2.84867"
         height="2.84867"
         x="178.91237"
         y="29.944887"
         transform="rotate(45)" /></g></g><g
     id="g39"
     style="display:none"
     transform="translate(-102.88633,-147.69101)"><path
       style="display:inline;fill:url(#pattern43);fill-opacity:1;stroke:none;stroke-width:0.264583;stroke-dasharray:none;stroke-opacity:1"
       d="m 103.58004,149.79115 1.87223,-1.82657 1.84612,1.78097 -0.11088,2.78546 h -3.44765 z"
       id="path42"
       transform="translate(1.1041667e-6)" /></g><g
     id="g35"
     style="display:inline"
     transform="translate(-102.88633,-147.69101)"><path
       fill="currentColor"
       d="m 107.52562,149.74138 c 0,-0.26459 -0.39688,-0.26459 -0.39688,0 z m -3.70417,0 c 0,-0.26459 -0.39688,-0.26459 -0.39688,0 z m 3.89467,0.66939 c 0.18685,0.20065 0.48111,-0.0936 0.28045,-0.28046 z m -2.24102,-2.52148 0.14022,-0.14023 c -0.0775,-0.0774 -0.20298,-0.0774 -0.28045,0 z m -2.52148,2.24102 c -0.20066,0.18684 0.0936,0.48111 0.28045,0.28046 z m 1.19856,2.71992 h 2.64583 v -0.39687 h -2.64583 z m 3.37344,-0.7276 v -2.38125 h -0.39688 v 2.38125 z m -3.70417,0 v -2.38125 h -0.39688 v 2.38125 z m 4.17512,-1.99232 -2.38125,-2.38125 -0.28045,0.28046 2.38125,2.38125 z m -2.6617,-2.38125 -2.38125,2.38125 0.28045,0.28046 2.38125,-2.38125 z m 1.46314,5.10117 c 0.40185,0 0.72761,-0.32575 0.72761,-0.7276 h -0.39688 c 0,0.18256 -0.14817,0.33073 -0.33073,0.33073 z m -2.64583,-0.39687 c -0.18256,0 -0.33073,-0.33073 -0.33073,-0.33073 h -0.39688 c 0,0.40185 0.32576,0.7276 0.72761,0.7276 z"
       id="path6"
       style="display:inline;fill:#013b7f;fill-opacity:1;stroke-width:0.264583" /></g></svg>
