<?xml version="1.0" encoding="UTF-8" standalone="no"?>
<!-- Created with Inkscape (http://www.inkscape.org/) -->

<svg
   width="21.57"
   height="21.492802"
   viewBox="0 0 5.7070623 5.6866371"
   version="1.1"
   id="svg1"
   xml:space="preserve"
   inkscape:version="1.3.2 (091e20e, 2023-11-25, custom)"
   sodipodi:docname="house-icon.svg"
   inkscape:export-filename="house-crossed.svg"
   inkscape:export-xdpi="96"
   inkscape:export-ydpi="96"
   xmlns:inkscape="http://www.inkscape.org/namespaces/inkscape"
   xmlns:sodipodi="http://sodipodi.sourceforge.net/DTD/sodipodi-0.dtd"
   xmlns:xlink="http://www.w3.org/1999/xlink"
   xmlns="http://www.w3.org/2000/svg"
   xmlns:svg="http://www.w3.org/2000/svg"><sodipodi:namedview
     id="namedview1"
     pagecolor="#ffffff"
     bordercolor="#999999"
     borderopacity="1"
     inkscape:showpageshadow="2"
     inkscape:pageopacity="0"
     inkscape:pagecheckerboard="0"
     inkscape:deskcolor="#d1d1d1"
     inkscape:document-units="mm"
     showgrid="false"
     inkscape:zoom="11.588215"
     inkscape:cx="9.3198129"
     inkscape:cy="12.901037"
     inkscape:window-width="1920"
     inkscape:window-height="1009"
     inkscape:window-x="-8"
     inkscape:window-y="47"
     inkscape:window-maximized="1"
     inkscape:current-layer="g39" /><defs
     id="defs1"><pattern
       inkscape:collect="always"
       xlink:href="#Strips2_1"
       preserveAspectRatio="xMidYMid"
       id="pattern43"
       patternTransform="matrix(0.21213203,0.21213203,-0.21213203,0.21213203,0.26476731,0.26370855)"
       x="-1"
       y="0"
       width="2.1" /><pattern
       inkscape:collect="always"
       patternUnits="userSpaceOnUse"
       width="1.5"
       height="1"
       patternTransform="translate(0,0) scale(2,2)"
       preserveAspectRatio="xMidYMid"
       id="Strips2_1"
       style="fill:#013b7f"
       inkscape:stockid="Stripes 12 (2:1)"
       inkscape:isstock="true"
       inkscape:label="Stripes 12 (2:1)">
      <rect
   style="stroke:none"
   x="0"
   y="-0.5"
   width="1"
   height="2"
   id="rect197" />
    </pattern></defs><g
     inkscape:groupmode="layer"
     id="layer1"
     inkscape:label="Cross"
     style="display:inline"
     transform="translate(-102.62156,-147.4273)"><path
       style="display:inline;fill:#013b7f;fill-opacity:1;stroke:#013b7f;stroke-width:0.465;stroke-linecap:round;stroke-dasharray:none;stroke-opacity:1"
       d="m 104.79015,150.22496 1.41558,1.41559"
       id="path43"
       sodipodi:nodetypes="cc"
       transform="translate(1.1041667e-6)" /><path
       style="display:inline;fill:#013b7f;fill-opacity:1;stroke:#013b7f;stroke-width:0.465;stroke-linecap:round;stroke-dasharray:none;stroke-opacity:1"
       d="m 106.20573,150.22496 -1.41558,1.41559"
       id="path44"
       sodipodi:nodetypes="cc"
       transform="translate(1.1041667e-6)" /></g><g
     inkscape:label="Fill"
     inkscape:groupmode="layer"
     id="g6"
     style="display:none"
     transform="translate(-102.62156,-147.4273)"><g
       id="g37"
       style="display:inline"
       transform="translate(0.20767103,0.28337037)"><rect
         style="fill:#013b7f;fill-opacity:1;stroke:none;stroke-width:0.132368;stroke-dasharray:none;stroke-opacity:1"
         id="rect34"
         width="3.4704776"
         height="2.854003"
         x="103.47509"
         y="149.43611"
         inkscape:label="rect34" /><rect
         style="fill:#013b7f;fill-opacity:1;stroke:none;stroke-width:0.20893;stroke-dasharray:none;stroke-opacity:1"
         id="rect35"
         width="2.84867"
         height="2.84867"
         x="178.91237"
         y="29.944887"
         transform="rotate(45)" /></g></g><g
     inkscape:label="Lines"
     inkscape:groupmode="layer"
     id="g39"
     style="display:none"
     transform="translate(-102.62156,-147.4273)"><path
       style="display:inline;fill:url(#pattern43);fill-opacity:1;stroke:none;stroke-width:0.264583;stroke-dasharray:none;stroke-opacity:1"
       d="m 103.58004,149.79115 1.87223,-1.82657 1.84612,1.78097 -0.11088,2.78546 h -3.44765 z"
       id="path42"
       sodipodi:nodetypes="cccccc"
       transform="translate(1.1041667e-6)" /></g><g
     inkscape:label="House outline"
     inkscape:groupmode="layer"
     id="g35"
     style="display:inline"
     transform="translate(-102.62156,-147.4273)"><path
       fill="currentColor"
       d="m 107.52562,149.74138 c 0,-0.26459 -0.39688,-0.26459 -0.39688,0 z m -3.70417,0 c 0,-0.26459 -0.39688,-0.26459 -0.39688,0 z m 3.89467,0.66939 c 0.18685,0.20065 0.48111,-0.0936 0.28045,-0.28046 z m -2.24102,-2.52148 0.14022,-0.14023 c -0.0775,-0.0774 -0.20298,-0.0774 -0.28045,0 z m -2.52148,2.24102 c -0.20066,0.18684 0.0936,0.48111 0.28045,0.28046 z m 1.19856,2.71992 h 2.64583 v -0.39687 h -2.64583 z m 3.37344,-0.7276 v -2.38125 h -0.39688 v 2.38125 z m -3.70417,0 v -2.38125 h -0.39688 v 2.38125 z m 4.17512,-1.99232 -2.38125,-2.38125 -0.28045,0.28046 2.38125,2.38125 z m -2.6617,-2.38125 -2.38125,2.38125 0.28045,0.28046 2.38125,-2.38125 z m 1.46314,5.10117 c 0.40185,0 0.72761,-0.32575 0.72761,-0.7276 h -0.39688 c 0,0.18256 -0.14817,0.33073 -0.33073,0.33073 z m -2.64583,-0.39687 c -0.18256,0 -0.33073,-0.33073 -0.33073,-0.33073 h -0.39688 c 0,0.40185 0.32576,0.7276 0.72761,0.7276 z"
       id="path6"
       style="display:inline;fill:#013b7f;fill-opacity:1;stroke-width:0.264583"
       sodipodi:nodetypes="ccccccccccccccccccccccccccccccccccccccccccccccccccc" /></g></svg>
